<?xml version="1.0"?>
<svg width="577" height="433" xmlns="http://www.w3.org/2000/svg" xmlns:svg="http://www.w3.org/2000/svg" enable-background="new 0 0 577 433" version="1.1" xml:space="preserve">
 <g class="layer">
  <title>Layer 1</title>
  <g id="svg_70">
   <path d="m230.11,671.74c-27.1,-3.28 -54.72,-4.57 -81.18,-10.28c-57.37,-12.34 -111.1,-33.03 -159.43,-63.92c-14.96,-9.58 -29.12,-20.19 -43.96,-32.06c3.35,-8.37 7.94,-14.72 10.48,-21.68c9.1,-24.78 17.67,-49.71 26.05,-74.69c2.21,-6.63 2.99,-13.66 4.48,-21.21c0.72,-1.99 1.38,-3.25 2.9,-4.74c1.6,-3.28 2.38,-6.31 3.12,-10.08c0.75,-1.94 1.52,-3.13 3.01,-4.69c1.05,-1.27 1.38,-2.19 1.63,-3.48c-0.06,-0.37 0.28,-1.04 1.11,-1.51c3.93,-7.72 7.02,-14.97 10.29,-22.1c0.17,0.12 -0.22,-0.05 0.64,-0.45c2.1,-3.7 3.32,-7.03 4.53,-10.73c0,-0.37 0.41,-1.07 1.13,-1.42c1.05,-1.29 1.38,-2.19 1.71,-3.5c0,-0.4 0.44,-1.09 1.13,-1.44c1.05,-1.22 1.41,-2.09 1.82,-3.65c0.41,-1.59 0.77,-2.46 2.02,-3.55c1.82,-2.66 2.76,-5.07 3.79,-7.45c0.06,0.05 -0.11,0.02 0.64,-0.42c1.11,-1.94 1.47,-3.45 1.85,-4.82c0.06,0.15 -0.3,0.15 0.5,-0.2c1.27,-1.27 1.71,-2.23 2.27,-4.02c8.35,-13.91 16.59,-26.99 25.55,-40.45c1.13,-1.76 1.58,-3.15 2.88,-4.87c11.5,-11.77 22.15,-23.17 33.68,-34.69c2.05,-1.74 3.24,-3.35 4.62,-5.81c5.81,-5.96 11.42,-11.12 18,-16.31c3.82,-2.53 6.66,-5.02 10.31,-7.65c2.1,-0.94 3.37,-1.71 5.34,-2.73c1.11,-0.97 1.58,-1.66 2.41,-3.03c2.05,-1.81 3.73,-3 5.97,-4.37c1.33,-0.65 1.8,-1.24 2.63,-2.19c0.61,-0.2 1.85,-0.37 2.82,-0.37c2.16,-1.69 3.35,-3.38 4.7,-4.89c0.19,0.17 -0.17,-0.17 0.88,-0.02c7.85,-4.59 14.71,-9.34 21.95,-14.45c0.39,-0.37 1.55,-0.52 2.63,-0.4c5.28,-2.23 9.46,-4.62 14.07,-7.2c0.44,-0.2 1.44,-0.27 2.21,-0.37c1.47,-0.77 2.16,-1.47 3.26,-2.33c0.41,-0.2 1.38,-0.22 2.52,-0.1c16.37,-5.51 31.58,-11.15 47.67,-17.03c2.71,-0.4 4.53,-0.6 7.27,-0.32c1.58,3.4 2.79,6.28 2.71,9.16c-0.11,3.35 -1.35,6.68 -2.07,10.33c0.03,0.32 -0.61,0.62 -1.24,1.02c-0.97,1.24 -1.3,2.06 -1.63,3.38c0,0.47 -0.69,1.22 -1.63,1.39c-3.76,6.85 -6.55,13.53 -9.4,20.06c-0.08,-0.15 0.22,0.07 -0.83,0.02c-5.06,7.4 -9.07,14.82 -13.13,23.14c-0.28,2.71 -0.55,4.49 -1.66,6.43c-1.82,1.79 -2.85,3.43 -3.9,5.96c-0.33,2.73 -0.61,4.54 -1.85,6.51c-3.65,6.8 -6.33,13.43 -9.07,21.13c-0.39,5.21 -0.75,9.36 -2.07,13.73c-2.63,6.38 -4.31,12.56 -5.81,19.02c0.17,0.27 -0.25,0.77 -1.35,0.89c-4.23,15.25 -8.02,30.32 -10.15,45.57c-0.94,6.9 1.41,14.15 2.49,21.78c0.22,0.55 0.41,1.66 0.14,2.36c-0.47,1.17 -0.66,1.61 -1.58,2.76c-4.98,15.22 -7.88,29.75 0.55,45.04c0.25,4.49 0.22,7.95 -0.47,12.22c-0.91,11.45 -2.02,22.15 -1.05,32.7c0.61,6.33 4.45,12.44 7.11,19.42c0.28,1.84 0.28,2.93 -0.41,4.79c0.88,14.05 1.49,27.51 4.2,40.62c4.06,19.44 9.4,38.71 14.6,57.96c4.92,18.15 10.4,36.2 15.62,54.28z" fill="#52FEEC" id="svg_2" opacity="1" style="--darkreader-inline-fill: var(--darkreader-background-52feec, #13968b); --darkreader-inline-stroke: none;"/>
   <path d="m459.63,-140.05c19.69,10.75 39.37,21.48 60.28,33.05c1.85,1.34 2.57,1.69 3.4,1.81c0,0 -0.17,0.1 0.19,0.6c1.13,0.97 1.91,1.44 2.68,1.89c4.89,3.28 9.76,6.53 15.87,10.58c1.85,1.37 2.57,1.69 3.46,1.79c7.02,5.31 14.07,10.63 21.84,17.23c1.49,1.76 2.27,2.21 3.01,2.66c0,0 -0.19,0.1 0.14,0.6c1.08,0.97 1.85,1.44 2.6,1.94c2.52,1.94 5,3.9 7.88,7.42c3.15,3.55 5.89,5.54 8.65,7.5c1.77,1.89 3.54,3.8 5.72,7.08c1.16,1.94 1.96,2.46 2.74,2.98c1.6,1.12 3.21,2.26 5.36,4.62c1.27,1.71 2.05,2.19 2.79,2.66c0,0 -0.17,0.1 0.19,0.6c1.16,0.94 1.94,1.39 2.74,1.84c0,0 -0.22,0.1 0,0.55c0.61,1.19 1.22,1.71 2.05,2.06c6.39,7.65 12.77,15.32 19.82,24.38c1.47,1.86 2.27,2.33 3.07,2.81c2.43,3.6 4.89,7.18 7.88,12.07c0.94,2.06 1.52,2.58 2.32,2.93c25.47,35.31 44.38,73.35 55.41,114.15c6.44,23.76 10.51,48.15 14.18,72.41c4.81,31.56 4.73,63.22 -3.29,94.95c-2.41,-3.4 -3.59,-7.1 -4.92,-11.97c0.03,-24.43 0.19,-47.73 1.02,-71.61c0.06,-4.3 -0.55,-8 -1.35,-12.64c-1.71,-9.49 -3.24,-17.98 -4.18,-26.99c0,-2.61 -0.58,-4.72 -1.63,-7.67c-12.3,-50.16 -31.8,-96.82 -60.47,-141.14c-1.05,-2.11 -2.1,-3.4 -3.73,-5.29c-24.94,-30.47 -48.5,-60.84 -79.74,-85.69c-44.1,-35.11 -92.57,-63.87 -148.15,-81.4c-30.64,-9.66 -62.82,-15.32 -94.56,-23.27c-1.11,-0.22 -1.94,0.05 -3.98,0.35c-6.72,-0.37 -12.25,-0.79 -17.42,-1.89c-0.64,-2.41 -1.66,-4.1 -2.68,-5.81c-3.01,1.66 -6.03,3.35 -10.34,5.12c-48.77,-0.89 -95.78,2.51 -141.73,14.03c-16.65,4.17 -33.24,8.49 -50.57,13.06c-1.35,1.02 -2.02,1.71 -3.37,3c-13.94,6.18 -27.79,10.85 -40.31,17.53c-23.53,12.59 -46.31,26.32 -69.76,38.76c-1.11,-3.08 -1.85,-5.34 -2.6,-7.6c34.65,-24.91 72.8,-44.37 115.44,-58.68c3.07,-0.55 4.65,-1.56 6.22,-2.58c31.88,-7.55 63.32,-18.05 95.75,-21.88c36.11,-4.27 73.41,-5.41 109.69,-2.61c55.11,4.27 108.53,16.96 158.68,42.06c1.88,1.17 2.79,1.42 3.71,1.66z" fill="#71F2E3" id="svg_3" opacity="1" style="--darkreader-inline-fill: var(--darkreader-background-71f2e3, #1a8077); --darkreader-inline-stroke: none;"/>
   <path d="m-30.71,-97.66c1.6,1.89 2.35,4.15 2.99,7.9c-9.65,9.26 -19.47,16.79 -28.76,24.78c-54.36,46.81 -94.4,101.86 -118.98,166c-32.05,83.58 -35.2,167.73 -10.29,253.3c17.81,61.13 50.07,115.04 94.26,163.59c10.89,11.97 23.12,22.97 34.73,34.42c1.52,-0.62 3.07,-1.24 4.59,-1.86c3.73,-9.86 7.44,-19.72 11.17,-29.57c9.15,-24.09 18.33,-48.17 27.51,-72.26c-1.47,6.83 -2.24,13.86 -4.45,20.49c-8.38,24.98 -16.95,49.91 -26.05,74.69c-2.54,6.95 -7.13,13.31 -10.84,20.88c-57.76,-45.59 -100.09,-101.44 -127.13,-166.84c-14.27,-34.47 -24.86,-69.53 -27.71,-106.35c-1.44,-18.7 -6.36,-37.47 -5.06,-55.94c4.34,-60.59 16.34,-119.74 45.84,-175.36c20.52,-38.69 44.41,-75.16 77.59,-106.08c19.11,-17.83 39.73,-34.32 60.58,-51.77z" fill="#71F4E7" id="svg_4" opacity="1" style="--darkreader-inline-fill: var(--darkreader-background-71f4e7, #188178); --darkreader-inline-stroke: none;"/>
   <path d="m231.38,671.91c-6.5,-18.25 -11.97,-36.3 -16.89,-54.45c-5.2,-19.24 -10.53,-38.51 -14.6,-57.96c-2.71,-13.11 -3.32,-26.57 -3.9,-39.63c11.94,44.03 23.2,87.75 33.59,131.68c2.16,9.11 7.13,11.25 16.2,10.78c19.27,-1.02 38.65,-0.74 57.79,-2.63c52.98,-5.19 103.36,-18.75 150.77,-40.77c61.91,-28.73 113.59,-67.99 154.59,-118.84c33.07,-41.05 62.46,-83.71 77.61,-132.95c7.19,-23.37 12.41,-47.23 18.97,-70.15c2.02,1.37 3.59,2.01 5.17,2.68c2.21,34.39 -11.34,65.8 -23.72,97.24c-7.13,18.1 -15.98,35.86 -26.1,52.79c-28.23,47.15 -64.56,88.45 -110.71,122.91c-30.97,23.14 -63.93,43.31 -100.12,58.78c-42.53,18.18 -86.85,32.11 -134.3,35.71c-27.65,2.09 -55.38,3.35 -84.36,4.82z" fill="#71F2E3" id="svg_5" opacity="1" style="--darkreader-inline-fill: var(--darkreader-background-71f2e3, #1a8077); --darkreader-inline-stroke: none;"/>
   <path d="m710.91,298.82c-1.8,0.17 -3.37,-0.47 -5.47,-2.81c-0.19,-5.71 0.11,-9.71 0.41,-13.73c1.19,3.7 2.38,7.4 4.2,11.72c0.8,1.74 0.91,2.86 0.86,4.82z" fill="#71F4E7" id="svg_6" opacity="1" style="--darkreader-inline-fill: var(--darkreader-text-71f4e7, #7cf0e4); --darkreader-inline-stroke: none;"/>
   <path d="m589.31,-53.71c-2.43,-1.24 -5.17,-3.23 -8.02,-6.08c2.49,1.19 5.09,3.28 8.02,6.08z" fill="#71F4E7" id="svg_7" opacity="1" style="--darkreader-inline-fill: var(--darkreader-text-71f4e7, #7cf0e4); --darkreader-inline-stroke: none;"/>
   <path d="m90.97,-159.44c-0.75,1.17 -2.32,2.19 -4.31,2.66c0.86,-1.32 2.16,-2.06 4.31,-2.66z" fill="#71F4E7" id="svg_8" opacity="1" style="--darkreader-inline-fill: var(--darkreader-text-71f4e7, #7cf0e4); --darkreader-inline-stroke: none;"/>
   <path d="m459.44,-140.64c-0.72,0.35 -1.63,0.1 -2.6,-0.67c0.75,-0.35 1.58,-0.15 2.6,0.67z" fill="#71F4E7" id="svg_9" opacity="1" style="--darkreader-inline-fill: var(--darkreader-text-71f4e7, #7cf0e4); --darkreader-inline-stroke: none;"/>
   <path d="m523.11,-105.8c-0.64,0.5 -1.35,0.15 -2.32,-0.84c0.47,-0.22 1.3,0 2.32,0.84z" fill="#71F4E7" id="svg_10" opacity="1" style="--darkreader-inline-fill: var(--darkreader-text-71f4e7, #7cf0e4); --darkreader-inline-stroke: none;"/>
   <path d="m525.93,-103.3c-0.53,0.15 -1.3,-0.32 -2.38,-1.37c0.5,-0.15 1.3,0.3 2.38,1.37z" fill="#71F4E7" id="svg_11" opacity="1" style="--darkreader-inline-fill: var(--darkreader-text-71f4e7, #7cf0e4); --darkreader-inline-stroke: none;"/>
   <path d="m545.29,-90.95c-0.66,0.52 -1.38,0.2 -2.38,-0.82c0.5,-0.25 1.33,-0.02 2.38,0.82z" fill="#71F4E7" id="svg_12" opacity="1" style="--darkreader-inline-fill: var(--darkreader-text-71f4e7, #7cf0e4); --darkreader-inline-stroke: none;"/>
   <path d="m570.15,-71.06c-0.53,0.17 -1.3,-0.27 -2.38,-1.27c0.53,-0.17 1.33,0.25 2.38,1.27z" fill="#71F4E7" id="svg_13" opacity="1" style="--darkreader-inline-fill: var(--darkreader-text-71f4e7, #7cf0e4); --darkreader-inline-stroke: none;"/>
   <path d="m572.91,-68.56c-0.55,0.15 -1.33,-0.32 -2.35,-1.39c0.53,-0.15 1.33,0.3 2.35,1.39z" fill="#71F4E7" id="svg_14" opacity="1" style="--darkreader-inline-fill: var(--darkreader-text-71f4e7, #7cf0e4); --darkreader-inline-stroke: none;"/>
   <path d="m597.88,-43.6c-0.55,0.15 -1.35,-0.37 -2.46,-1.51c0.53,-0.12 1.38,0.37 2.46,1.51z" fill="#71F4E7" id="svg_15" opacity="1" style="--darkreader-inline-fill: var(--darkreader-text-71f4e7, #7cf0e4); --darkreader-inline-stroke: none;"/>
   <path d="m606.04,-36.28c-0.53,0.15 -1.3,-0.32 -2.35,-1.37c0.53,-0.12 1.33,0.3 2.35,1.37z" fill="#71F4E7" id="svg_16" opacity="1" style="--darkreader-inline-fill: var(--darkreader-text-71f4e7, #7cf0e4); --darkreader-inline-stroke: none;"/>
   <path d="m608.88,-33.82c-0.5,0.15 -1.27,-0.3 -2.38,-1.32c0.5,-0.15 1.3,0.3 2.38,1.32z" fill="#71F4E7" id="svg_17" opacity="1" style="--darkreader-inline-fill: var(--darkreader-text-71f4e7, #7cf0e4); --darkreader-inline-stroke: none;"/>
   <path d="m611.37,-31.28c-0.97,0.32 -1.58,-0.2 -2.16,-1.49c0.64,-0.1 1.44,0.35 2.16,1.49z" fill="#71F4E7" id="svg_18" opacity="1" style="--darkreader-inline-fill: var(--darkreader-text-71f4e7, #7cf0e4); --darkreader-inline-stroke: none;"/>
   <path d="m633.82,-4.02c-0.5,0.12 -1.3,-0.35 -2.41,-1.42c0.5,-0.12 1.33,0.32 2.41,1.42z" fill="#71F4E7" id="svg_19" opacity="1" style="--darkreader-inline-fill: var(--darkreader-text-71f4e7, #7cf0e4); --darkreader-inline-stroke: none;"/>
   <path d="m644.44,10.93c-0.91,0.3 -1.49,-0.22 -2.1,-1.49c0.61,-0.1 1.38,0.37 2.1,1.49z" fill="#71F4E7" id="svg_20" opacity="1" style="--darkreader-inline-fill: var(--darkreader-text-71f4e7, #7cf0e4); --darkreader-inline-stroke: none;"/>
   <path d="m218.33,277.32c0.28,-1.81 0.55,-3.63 1.71,-6.53c1.88,-2.68 2.9,-4.32 3.9,-5.93c0.28,-1.79 0.55,-3.58 1.6,-6.38c2.02,-1.84 3.21,-2.63 5.47,-3.38c31.82,8.34 62.68,16.36 93.32,25.05c8.54,2.43 12,1.29 14.54,-6.9c8.54,-27.79 17.56,-55.5 27.54,-82.91c3.62,-9.93 2.35,-15.72 -8.27,-19.54c-2.71,-6.23 -6.22,-12.76 -12,-15.69c-17.75,-8.99 -37.16,-12.14 -57.26,-7.33c-9.15,2.21 -15.51,1.29 -22.59,-5.51c-13.47,-12.99 -30.64,-20.76 -50.74,-22.77c-9.73,-0.97 -18.64,-1.44 -21.24,10.43c-13.85,-6.28 -17.03,1.02 -19.96,10.45c-9.4,30.17 -19.38,60.19 -29.42,91.35c-0.55,2.56 -0.8,4 -1.08,5.46c0,0 -1.24,0.17 -2.43,0.57c-1.91,0.82 -2.41,1.42 -2.63,2.19c-1.66,1.17 -3.35,2.36 -6,4.47c-1.71,1.47 -2.21,2.16 -2.46,2.98c-1.3,0.77 -2.57,1.54 -5.56,2.53c-4.59,2.68 -7.49,5.16 -10.4,7.65c-5.61,5.14 -11.23,10.3 -17.89,16.41c-2.27,2.56 -3.46,4.17 -4.67,5.76c-10.62,11.42 -21.26,22.82 -33.87,34.59c-21.68,-0.97 -24.36,-3.43 -24.39,-20.11c-0.03,-70.99 -0.08,-141.98 0.58,-213.72c7.33,-1.94 13.94,-4.17 20.54,-4.2c126.66,-0.25 253.36,-0.22 380.9,0.02c9.54,5.93 18.22,11.57 27.01,18.13c9.98,4.87 11,12.09 10.95,20.93c-0.36,60.39 -0.11,120.78 -0.14,181.17c0,16.24 -1.94,17.95 -19.66,17.98c-76.45,0.02 -152.9,0.07 -229.36,-0.07c-5.36,-0.02 -10.73,-1.49 -16.37,-2.31c-0.28,-0.05 -0.88,-0.02 -0.88,-0.02c0.39,-4.17 0.75,-8.32 2.07,-13.81c3.65,-7.87 6.36,-14.45 9.1,-21.01z" fill="#8EFD8C" id="svg_22" opacity="1" style="--darkreader-inline-fill: var(--darkreader-background-8efd8c, #2a7310); --darkreader-inline-stroke: none;"/>
   <path d="m462.48,93.54c-8.65,-5.64 -17.34,-11.27 -27.4,-18.05c-6.19,-2.11 -10.95,-3.9 -15.73,-3.95c-32.65,-0.25 -65.31,-0.12 -97.99,-0.12c-90.61,0 -181.24,0 -271.88,0.02c-8.29,0 -17.17,-0.77 -20.02,10.3c-0.72,71.54 -0.86,142.21 -0.91,212.88c-0.03,23.37 1.33,24.53 26.9,24.96c-8.21,13.09 -16.45,26.17 -25.52,40.47c-1.35,2.14 -1.85,3.05 -2.35,3.97c0,0 0.36,0 -0.41,-0.12c-1.22,0.07 -1.66,0.27 -2.1,0.47c-17.36,-4.49 -21.84,-9.46 -21.87,-25.35c-0.06,-88.92 -0.08,-177.87 0,-266.81c0.03,-18.55 7.74,-25.2 28.56,-25.2c119.75,-0.05 239.53,-0.4 359.28,0.32c17.5,0.12 30.03,-4.02 39.51,-17.9c-10.45,-5.84 -21.21,-11.84 -32.68,-18.25c1.99,-3.15 3.71,-5.86 6.08,-9.58c56.6,29.72 112.67,59.2 171.68,90.21c-5.31,3.05 -8.79,5.04 -13.3,6.78c-1.02,-0.25 -0.8,-0.25 -0.8,-0.25c-10.92,-5.98 -21.82,-11.97 -33.82,-18.55c-3.95,11.07 -7.49,21.01 -11.2,31.46c-4.15,-0.67 -7.6,-1.24 -11.94,-1.96c-0.14,1.66 -0.39,3.13 -0.39,4.59c-0.03,73.62 0,147.22 -0.03,220.82c0,23.76 -6.14,29.3 -32.3,29.33c-90.72,0 -181.44,0 -273.93,-0.94c-0.44,-10.98 0.91,-20.98 2.24,-30.96c0,0 0.41,-0.5 0.94,-1.47c2.49,-4.59 4.45,-8.19 7.74,-11.57c83.25,0.25 165.21,0.25 247.16,0.27c19.13,0 22.87,-3.38 22.89,-21.03c0,-62.03 -0.41,-124.06 0.36,-186.06c0.17,-12.04 -4.15,-17.56 -16.78,-18.72z" fill="#050505" id="svg_23" opacity="1" style="--darkreader-inline-fill: var(--darkreader-background-050505, #040404); --darkreader-inline-stroke: none;"/>
   <path d="m191.54,401.95c7.96,-0.7 15.68,-0.7 24.61,-0.7c0,-8.99 0,-17.06 0,-25.77c25.33,0 49.44,0 74.85,0c0,8.59 0,16.66 0,25.85c21.82,0 42.36,-0.15 62.93,0.1c4.87,0.07 11.25,0.12 14.18,2.71c5.03,4.42 10.92,10.83 10.95,16.41c0.03,9.24 -9.93,8.79 -17.92,8.77c-55.63,-0.02 -111.26,-0.02 -168.69,-1.07c-1.8,-8.77 -1.8,-16.49 -1.8,-24.24c0.22,-0.45 0.41,-0.89 0.88,-2.06z" fill="#040404" id="svg_24" opacity="1" style="--darkreader-inline-fill: var(--darkreader-background-040404, #030303); --darkreader-inline-stroke: none;"/>
   <path d="m145.2,230.63c9.79,-30.07 19.77,-60.09 29.17,-90.26c2.93,-9.44 6.11,-16.74 19.96,-10.45c2.6,-11.87 11.5,-11.4 21.24,-10.43c20.1,2.01 37.27,9.78 50.74,22.77c7.08,6.8 13.44,7.72 22.59,5.51c20.1,-4.82 39.51,-1.66 57.26,7.33c5.78,2.93 9.29,9.46 12,15.69c10.62,3.82 11.89,9.61 8.27,19.54c-9.98,27.41 -19,55.13 -27.54,82.91c-2.54,8.19 -6,9.34 -14.54,6.9c-30.64,-8.69 -61.49,-16.71 -93.54,-26c1.88,-6.9 5,-12.79 8.16,-18.67c0,0 -0.3,-0.22 0.66,-0.5c3.79,-6.78 6.64,-13.31 9.46,-19.82c0,0 0.69,-0.74 1.38,-1.54c1,-1.69 1.27,-2.56 1.58,-3.45c0,0 0.64,-0.3 1.38,-1.07c2.74,-2.63 4.76,-4.44 7.05,-5.29c-3.84,14.92 -7.94,28.88 -12.41,44.22c26.1,-6.23 49,-2.76 71.12,7.92c10.29,-30.96 20.07,-60.46 29.94,-90.21c-15.9,-11.15 -33.57,-13.61 -52.4,-12.27c-12.91,0.89 -22.73,4.62 -24.3,18.25c-0.66,5.51 -3.93,10.78 -6.72,15.67c-2.43,-1.09 -4.15,-1.66 -5.67,-3.2c0.77,-12.32 16.95,-23.54 2.79,-34.74c-10.06,-7.97 -22.56,-13.61 -34.37,-19.64c-3.79,-1.94 -8.88,-1.76 -13.3,-2.78c-7.77,-1.81 -11.23,0.45 -13.47,7.8c-8.02,26.15 -17.06,52.05 -26.18,78.49c-0.83,1.61 -1.22,2.81 -1.58,3.97c0,0 -1.16,0.15 -2.32,0.57c-2.54,0.92 -3.9,1.42 -5.06,0.97c7.91,-24.09 15.79,-47.23 23.17,-70.47c1.22,-3.8 0.19,-8.14 0.19,-12.22c-2.24,-0.25 -4.45,-0.5 -6.69,-0.74c-9.12,30.1 -18.25,60.19 -27.76,90.96c-2.27,2.36 -4.18,4.05 -6.08,5.76c0,0 0.36,0.35 -0.55,-0.02c-1.8,-0.74 -2.71,-1.09 -3.62,-1.47m192.17,24.88c6.94,-21.33 14.13,-42.61 20.57,-64.06c1.08,-3.6 -1,-7.97 -1.58,-11.99c-1.33,0.07 -2.63,0.17 -3.95,0.27c-9.65,28.18 -19.3,56.34 -28.7,83.83c-15.76,-4.42 -29.92,-8.84 -44.41,-12.17c-3.54,-0.79 -8.1,2.06 -12.22,3.25c0.53,1.17 1.05,2.33 1.58,3.5c20.21,5.31 40.4,10.65 61.38,16.17c2.38,-6.18 4.45,-11.57 7.33,-18.8z" fill="#0D140D" id="svg_25" opacity="1" style="--darkreader-inline-fill: var(--darkreader-background-0d140d, #0b100b); --darkreader-inline-stroke: none;"/>
   <path d="m176,212.88c8.63,-26 17.67,-51.9 25.69,-78.04c2.24,-7.35 5.7,-9.61 13.47,-7.8c4.42,1.02 9.51,0.84 13.3,2.78c11.81,6.03 24.3,11.67 34.37,19.64c14.16,11.2 -2.02,22.42 -3.62,34.84c-3.4,2.46 -5.75,3.87 -8.1,5.29c-1.82,0.2 -3.65,0.4 -7.44,0.72c-17.23,5.74 -32.49,11.35 -47.72,16.98c0,0 -0.97,0.02 -2.13,0.37c-1.88,0.99 -2.6,1.64 -3.29,2.28c0,0 -1,0.07 -2.52,0.32c-5,1.04 -8.52,1.84 -12,2.61z" fill="#F8FBFA" id="svg_26" opacity="1" style="--darkreader-inline-fill: var(--darkreader-background-f8fbfa, #172421); --darkreader-inline-stroke: none;"/>
   <path d="m56.19,319.21c-26.32,-0.05 -27.68,-1.22 -27.65,-24.58c0.06,-70.67 0.19,-141.34 1.74,-212.78c2.02,-0.72 2.6,-0.65 3.15,-0.6c0.06,70.99 0.11,141.98 0.14,212.98c0.03,16.69 2.71,19.14 23.53,20.44c0.66,1.39 0.22,2.78 -0.91,4.54z" fill="#96CC94" id="svg_27" opacity="1" style="--darkreader-inline-fill: var(--darkreader-background-96cc94, #416135); --darkreader-inline-stroke: none;"/>
   <path d="m199.06,332.24c-0.22,9.86 -1.58,19.86 -2.41,30.89c-1.38,11.97 -3.26,22.89 -5.31,34.89c-1.02,-6.06 -3.37,-13.31 -2.43,-20.21c2.13,-15.25 5.92,-30.32 10.15,-45.57z" fill="#71F2E3" id="svg_28" opacity="1" style="--darkreader-inline-fill: var(--darkreader-background-71f2e3, #1a8077); --darkreader-inline-stroke: none;"/>
   <path d="m189.96,404.7c0.69,7.05 0.69,14.77 1.22,23.59c0.28,6.83 0,12.59 -0.58,19.39c-8.52,-13.24 -5.61,-27.76 -0.64,-42.98z" fill="#71F2E3" id="svg_29" opacity="1" style="--darkreader-inline-fill: var(--darkreader-background-71f2e3, #1a8077); --darkreader-inline-stroke: none;"/>
   <path d="m190.04,461.96c2.6,15.89 4.48,32.58 6.08,50.31c-2.68,-5.16 -6.53,-11.27 -7.13,-17.61c-0.97,-10.55 0.14,-21.26 1.05,-32.7z" fill="#71F2E3" id="svg_30" opacity="1" style="--darkreader-inline-fill: var(--darkreader-background-71f2e3, #1a8077); --darkreader-inline-stroke: none;"/>
   <path d="m197.07,207.42c14.1,-5.76 29.36,-11.37 45.71,-16.91c-14.13,5.76 -29.34,11.4 -45.71,16.91z" fill="#71F2E3" id="svg_31" opacity="1" style="--darkreader-inline-fill: var(--darkreader-background-71f2e3, #1a8077); --darkreader-inline-stroke: none;"/>
   <path d="m252.01,190.06c1.44,-1.89 3.79,-3.3 6.97,-4.82c2.57,0.5 4.29,1.07 6.66,3.13c-1.35,5.79 -3.4,10.13 -5.45,14.45c-2.02,1.84 -4.04,3.65 -6.83,5.93c0,-2.86 1.24,-6.18 1.35,-9.54c0.08,-2.88 -1.13,-5.76 -2.71,-9.16z" fill="#71F2E3" id="svg_32" opacity="1" style="--darkreader-inline-fill: var(--darkreader-text-71f2e3, #7deee0); --darkreader-inline-stroke: none;"/>
   <path d="m237.91,235.43c-2.1,5.93 -5.23,11.82 -8.16,18.65c-1,1.76 -2.18,2.56 -4.18,3.5c3.26,-7.33 7.27,-14.75 12.33,-22.15z" fill="#71F2E3" id="svg_33" opacity="1" style="--darkreader-inline-fill: var(--darkreader-text-71f2e3, #7deee0); --darkreader-inline-stroke: none;"/>
   <path d="m217.36,277.47c-1.77,6.41 -4.48,12.99 -8.1,19.82c1.77,-6.38 4.45,-13.01 8.1,-19.82z" fill="#71F2E3" id="svg_34" opacity="1" style="--darkreader-inline-fill: var(--darkreader-text-71f2e3, #7deee0); --darkreader-inline-stroke: none;"/>
   <path d="m166.35,219.76c1.35,-0.47 2.71,-0.97 4.84,-1.49c-6.06,4.67 -12.91,9.41 -20.77,14c0.86,-1.86 2.76,-3.55 5.83,-6.03c2.32,-1.66 3.51,-2.53 5.47,-3.55c1.49,-0.89 2.16,-1.64 3.35,-2.31c0.53,0.05 1.27,-0.62 1.27,-0.62z" fill="#71F2E3" id="svg_35" opacity="1" style="--darkreader-inline-fill: var(--darkreader-text-71f2e3, #7deee0); --darkreader-inline-stroke: none;"/>
   <path d="m248.14,215.34c-1.88,6.33 -4.73,12.86 -8.46,19.82c1.91,-6.28 4.7,-12.96 8.46,-19.82z" fill="#71F2E3" id="svg_36" opacity="1" style="--darkreader-inline-fill: var(--darkreader-text-71f2e3, #7deee0); --darkreader-inline-stroke: none;"/>
   <path d="m-1.68,423.4c2.29,-6.78 5.39,-14.05 9.32,-21.78c-2.29,6.8 -5.39,14.05 -9.32,21.78z" fill="#71F4E7" id="svg_37" opacity="1" style="--darkreader-inline-fill: var(--darkreader-text-71f4e7, #7cf0e4); --darkreader-inline-stroke: none;"/>
   <path d="m207.52,318.84c-1.96,3.63 -3.93,7.23 -6.58,11.55c0.97,-5.49 2.65,-11.67 5.28,-18.05c0.94,-0.2 1.55,-0.22 1.66,0.65c-0.03,2.51 -0.19,4.2 -0.36,5.86z" fill="#71F2E3" id="svg_38" opacity="1" style="--darkreader-inline-fill: var(--darkreader-text-71f2e3, #7deee0); --darkreader-inline-stroke: none;"/>
   <path d="m175.5,213.33c3.98,-1.22 7.49,-2.01 12.06,-2.86c-3.1,2.33 -7.27,4.72 -12.55,6.95c-0.72,-1.29 -0.33,-2.48 0.5,-4.1z" fill="#71F2E3" id="svg_39" opacity="1" style="--darkreader-inline-fill: var(--darkreader-text-71f2e3, #7deee0); --darkreader-inline-stroke: none;"/>
   <path d="m115.36,257.53c1.94,-2.43 4.84,-4.92 8.65,-7.45c-1.99,2.43 -4.84,4.92 -8.65,7.45z" fill="#71F2E3" id="svg_40" opacity="1" style="--darkreader-inline-fill: var(--darkreader-text-71f2e3, #7deee0); --darkreader-inline-stroke: none;"/>
   <path d="m9.24,400.85c0.36,-2.88 1.58,-6.16 3.68,-9.88c-0.36,2.86 -1.58,6.18 -3.68,9.88z" fill="#71F4E7" id="svg_41" opacity="1" style="--darkreader-inline-fill: var(--darkreader-text-71f4e7, #7cf0e4); --darkreader-inline-stroke: none;"/>
   <path d="m-10.56,443.16c-0.03,-2.58 0.83,-5.39 2.38,-8.77c0,2.46 -0.77,5.49 -2.38,8.77z" fill="#71F4E7" id="svg_42" opacity="1" style="--darkreader-inline-fill: var(--darkreader-text-71f4e7, #7cf0e4); --darkreader-inline-stroke: none;"/>
   <path d="m21.6,376.57c0.14,-2.11 1.16,-4.42 2.96,-7.13c-0.19,2.06 -1.13,4.47 -2.96,7.13z" fill="#71F4E7" id="svg_43" opacity="1" style="--darkreader-inline-fill: var(--darkreader-text-71f4e7, #7cf0e4); --darkreader-inline-stroke: none;"/>
   <path d="m223.11,265c-0.17,1.47 -1.19,3.1 -3.01,4.87c0.17,-1.44 1.19,-3.08 3.01,-4.87z" fill="#71F2E3" id="svg_44" opacity="1" style="--darkreader-inline-fill: var(--darkreader-text-71f2e3, #7deee0); --darkreader-inline-stroke: none;"/>
   <path d="m92.74,279.65c0.3,-1.49 1.49,-3.1 3.57,-4.84c-0.33,1.49 -1.52,3.1 -3.57,4.84z" fill="#71F2E3" id="svg_45" opacity="1" style="--darkreader-inline-fill: var(--darkreader-text-71f2e3, #7deee0); --darkreader-inline-stroke: none;"/>
   <path d="m144.95,231.73c1.16,-0.72 2.07,-0.37 3.71,0.2c-0.47,1.89 -1.66,3.58 -3.82,5.26c-0.69,-1.47 -0.44,-2.91 0.11,-5.46z" fill="#71F2E3" id="svg_46" opacity="1" style="--darkreader-inline-fill: var(--darkreader-text-71f2e3, #7deee0); --darkreader-inline-stroke: none;"/>
   <path d="m25.14,365.17c0.36,-0.99 0.8,-1.19 1.96,-1.42c0.39,1.49 0.03,3 -1.08,4.94c-0.75,-0.62 -0.77,-1.66 -0.88,-3.53z" fill="#71F4E7" id="svg_47" opacity="1" style="--darkreader-inline-fill: var(--darkreader-text-71f4e7, #7cf0e4); --darkreader-inline-stroke: none;"/>
   <path d="m139.39,239.75c-0.36,-0.57 0.14,-1.17 1.44,-1.81c0.36,0.57 -0.11,1.17 -1.44,1.81z" fill="#71F2E3" id="svg_48" opacity="1" style="--darkreader-inline-fill: var(--darkreader-text-71f2e3, #7deee0); --darkreader-inline-stroke: none;"/>
   <path d="m28.38,363.68c-0.3,-0.57 0.19,-1.49 1.44,-2.78c0.28,0.55 -0.17,1.51 -1.44,2.78z" fill="#71F4E7" id="svg_49" opacity="1" style="--darkreader-inline-fill: var(--darkreader-text-71f4e7, #7cf0e4); --darkreader-inline-stroke: none;"/>
   <path d="m-4.42,428.39c-0.33,-0.5 0.06,-1.37 1.08,-2.66c0.3,0.47 -0.03,1.39 -1.08,2.66z" fill="#71F4E7" id="svg_50" opacity="1" style="--darkreader-inline-fill: var(--darkreader-text-71f4e7, #7cf0e4); --darkreader-inline-stroke: none;"/>
   <path d="m17.76,383.77c-0.3,-0.5 0.11,-1.32 1.13,-2.56c0.28,0.47 -0.08,1.34 -1.13,2.56z" fill="#71F4E7" id="svg_51" opacity="1" style="--darkreader-inline-fill: var(--darkreader-text-71f4e7, #7cf0e4); --darkreader-inline-stroke: none;"/>
   <path d="m14.91,388.71c-0.33,-0.5 0.08,-1.37 1.11,-2.66c0.28,0.47 -0.06,1.37 -1.11,2.66z" fill="#71F4E7" id="svg_52" opacity="1" style="--darkreader-inline-fill: var(--darkreader-text-71f4e7, #7cf0e4); --darkreader-inline-stroke: none;"/>
   <path d="m131.01,247.15c-0.41,-0.57 0.08,-1.27 1.44,-2.09c0.14,0.42 -0.33,1.12 -1.44,2.09z" fill="#71F2E3" id="svg_53" opacity="1" style="--darkreader-inline-fill: var(--darkreader-text-71f2e3, #7deee0); --darkreader-inline-stroke: none;"/>
   <path d="m251.4,210.57c0.33,0.5 0.06,1.37 -0.94,2.58c-0.36,-0.52 -0.03,-1.34 0.94,-2.58z" fill="#71F2E3" id="svg_54" opacity="1" style="--darkreader-inline-fill: var(--darkreader-text-71f2e3, #7deee0); --darkreader-inline-stroke: none;"/>
   <path d="m191.29,209.85c-0.08,-0.55 0.64,-1.19 2.1,-1.99c0.06,0.52 -0.64,1.22 -2.1,1.99z" fill="#71F2E3" id="svg_55" opacity="1" style="--darkreader-inline-fill: var(--darkreader-text-71f2e3, #7deee0); --darkreader-inline-stroke: none;"/>
   <path d="m291.52,-176.13c-3.51,0.32 -6.66,-0.07 -10.78,-0.62c2.07,-1.84 5.09,-3.53 8.1,-5.19c1.02,1.71 2.05,3.4 2.68,5.81z" fill="#71F4E7" id="svg_56" opacity="1" style="--darkreader-inline-fill: var(--darkreader-text-71f4e7, #7cf0e4); --darkreader-inline-stroke: none;"/>
   <path d="m706.74,209.5c-0.88,-2.81 -1.11,-6.21 -1.24,-10.65c0.69,2.66 1.3,6.36 1.24,10.65z" fill="#71F4E7" id="svg_57" opacity="1" style="--darkreader-inline-fill: var(--darkreader-text-71f4e7, #7cf0e4); --darkreader-inline-stroke: none;"/>
   <path d="m701.21,169.87c-0.83,-1.32 -1.08,-3.15 -1.24,-5.88c0.66,1.17 1.24,3.28 1.24,5.88z" fill="#71F4E7" id="svg_58" opacity="1" style="--darkreader-inline-fill: var(--darkreader-text-71f4e7, #7cf0e4); --darkreader-inline-stroke: none;"/>
   <path d="m639.1,21.06c-0.97,-0.45 -1.99,-1.74 -3.04,-3.87c0.94,0.47 1.99,1.76 3.04,3.87z" fill="#71F4E7" id="svg_59" opacity="1" style="--darkreader-inline-fill: var(--darkreader-text-71f4e7, #7cf0e4); --darkreader-inline-stroke: none;"/>
   <path d="m312.92,-174.59c-0.28,0.52 -0.77,0.55 -2.05,0.45c0.11,-0.4 0.94,-0.67 2.05,-0.45z" fill="#71F4E7" id="svg_60" opacity="1" style="--darkreader-inline-fill: var(--darkreader-text-71f4e7, #7cf0e4); --darkreader-inline-stroke: none;"/>
   <path d="m86.19,-149.73c0.11,0.47 -0.47,1.27 -1.88,2.23c-0.14,-0.52 0.53,-1.22 1.88,-2.23z" fill="#71F4E7" id="svg_61" opacity="1" style="--darkreader-inline-fill: var(--darkreader-text-71f4e7, #7cf0e4); --darkreader-inline-stroke: none;"/>
   <path d="m544.96,125.8c-3.54,10.8 -7.05,21.58 -11.23,34.29c-7.27,-3.75 -12.17,-6.28 -19.44,-10.03c8.35,-8.62 15.87,-16.34 25.22,-24.09c3.07,-0.05 4.26,-0.1 5.45,-0.17z" fill="#101010" id="svg_62" opacity="1" style="--darkreader-inline-fill: var(--darkreader-background-101010, #0c0d0e); --darkreader-inline-stroke: none;"/>
   <path d="m545.62,125.2c-1.85,0.67 -3.04,0.72 -5.14,0.67c5.7,-9.16 12.25,-18.23 19.94,-27.44c1.11,-0.1 0.88,-0.1 0.83,-0.17c-5,8.72 -9.98,17.53 -15.62,26.94z" fill="#3A3A3A" id="svg_63" opacity="1" style="--darkreader-inline-fill: var(--darkreader-text-3a3a3a, #c2beb7); --darkreader-inline-stroke: none;"/>
   <path d="m208.85,319.08c-1.16,-1.91 -1,-3.6 -0.66,-6.08c5.5,-0.02 10.87,1.44 16.23,1.47c76.45,0.15 152.9,0.1 229.36,0.07c17.72,-0.02 19.66,-1.74 19.66,-17.98c0.03,-60.39 -0.22,-120.78 0.14,-181.17c0.06,-8.84 -0.97,-16.07 -10.95,-20.93c12.5,0.25 16.81,5.76 16.65,17.8c-0.77,62 -0.36,124.03 -0.36,186.06c-0.03,17.65 -3.76,21.03 -22.89,21.03c-81.95,-0.02 -163.91,-0.02 -247.16,-0.27z" fill="#A0D99E" id="svg_64" opacity="1" style="--darkreader-inline-fill: var(--darkreader-background-a0d99e, #395d2c); --darkreader-inline-stroke: none;"/>
   <path d="m34.15,80.51c-1.27,0.7 -1.85,0.62 -3.24,0.45c1.38,-10.28 10.26,-9.51 18.55,-9.51c90.64,-0.02 181.27,-0.02 271.88,-0.02c32.68,0 65.34,-0.12 97.99,0.12c4.78,0.05 9.54,1.84 14.85,3.65c-126.14,0.89 -252.83,0.87 -379.49,1.12c-6.61,0.02 -13.22,2.26 -20.54,4.2z" fill="#9ED09D" id="svg_65" opacity="1" style="--darkreader-inline-fill: var(--darkreader-background-9ed09d, #3e5b33); --darkreader-inline-stroke: none;"/>
   <path d="m260.47,203.82c1.77,-5.31 3.82,-9.66 5.89,-14.95c2.13,-6.36 5.39,-11.62 6.06,-17.13c1.58,-13.63 11.39,-17.36 24.3,-18.25c18.83,-1.34 36.5,1.12 52.4,12.27c-9.87,29.75 -19.66,59.25 -29.94,90.21c-22.12,-10.68 -45.01,-14.15 -71.12,-7.92c4.48,-15.35 8.57,-29.3 12.41,-44.22z" fill="#FAFAFA" id="svg_66" opacity="1" style="--darkreader-inline-fill: var(--darkreader-background-fafafa, #1b1d1e); --darkreader-inline-stroke: none;"/>
   <path d="m336.95,256.41c-2.46,6.33 -4.53,11.72 -6.91,17.9c-20.99,-5.51 -41.17,-10.85 -61.38,-16.17c-0.53,-1.17 -1.05,-2.33 -1.58,-3.5c4.12,-1.19 8.68,-4.05 12.22,-3.25c14.49,3.33 28.65,7.75 44.41,12.17c9.4,-27.49 19.05,-55.65 28.7,-83.83c1.33,-0.1 2.63,-0.2 3.95,-0.27c0.58,4.02 2.65,8.39 1.58,11.99c-6.44,21.45 -13.63,42.73 -20.99,64.96z" fill="#2F1C1B" id="svg_67" opacity="1" style="--darkreader-inline-fill: var(--darkreader-background-2f1c1b, #241717); --darkreader-inline-stroke: none;"/>
   <path d="m160.93,222.84c-1.16,0.87 -2.35,1.74 -4.29,2.76c8.32,-30 17.45,-60.09 26.57,-90.19c2.24,0.25 4.45,0.5 6.69,0.74c0,4.07 1.02,8.42 -0.19,12.22c-7.38,23.24 -15.26,46.38 -23.17,70.47c-0.19,0.92 -0.94,1.59 -2.24,1.76c-1.96,0.84 -2.68,1.54 -3.37,2.23z" fill="#2E201E" id="svg_68" opacity="1" style="--darkreader-inline-fill: var(--darkreader-background-2e201e, #241a19); --darkreader-inline-stroke: none;"/>
   <path d="m161.73,222.69c-0.11,-0.55 0.61,-1.24 2.07,-2.14c0.08,0.5 -0.58,1.24 -2.07,2.14z" fill="#0D140D" id="svg_69" opacity="1" style="--darkreader-inline-fill: var(--darkreader-text-0d140d, #dedbd7); --darkreader-inline-stroke: none;"/>
  </g>
 </g>
</svg>